<svg width="85" height="26" viewBox="0 0 85 26" fill="none" xmlns="http://www.w3.org/2000/svg">
<path d="M8.29839 5.45941V15.232H5.52751V5.45941H2.42896V3.01625H11.4183V5.45941H8.29839Z" fill="black"/>
<path d="M14.9585 8.86776C13.9328 8.86776 12.9284 9.54641 12.9284 11.5522V15.232H10.4211V6.85442H12.9284V8.06091H12.964C13.4911 7.06555 14.4955 6.59804 15.8489 6.59804C15.9842 6.59804 16.1267 6.59804 16.3119 6.61312V9.21463C15.799 8.98841 15.4571 8.86776 14.9585 8.86776Z" fill="black"/>
<path d="M20.1726 6.59804C19.0685 6.59804 18.1568 6.83934 17.3447 7.23899V9.44839L17.3661 9.50117C18.2066 8.92808 19.0116 8.57368 19.9233 8.57368C21.0131 8.57368 21.6186 9.01103 21.6186 9.9159V10.127H19.2609C17.1809 10.127 16.0982 11.2958 16.0982 12.7964C16.0982 14.297 17.3163 15.5035 18.8548 15.5035C19.8948 15.5035 20.8636 15.1566 21.5901 14.1613H21.6257V15.2471H24.1331V10.0818C24.1331 7.98551 23.0788 6.60558 20.1726 6.60558V6.59804ZM21.6257 11.8011C21.6257 12.6758 20.6356 13.4977 19.5672 13.4977C18.9902 13.4977 18.5129 13.2866 18.5129 12.6079C18.5129 11.9292 19.0258 11.7332 19.617 11.7332H21.6257V11.8011Z" fill="black"/>
<path d="M32.517 14.2442C31.7405 14.9756 30.6222 15.5035 29.2047 15.5035C26.8114 15.5035 24.767 13.6862 24.767 11.0545C24.767 8.42286 26.8114 6.60558 29.2047 6.60558C30.6222 6.60558 31.5482 7.02785 32.3246 7.6688L31.2063 9.34281C30.6436 8.90546 30.1663 8.69432 29.3401 8.69432C28.1861 8.69432 27.2815 9.53133 27.2815 11.0545C27.2815 12.5777 28.1861 13.4147 29.3401 13.4147C30.2661 13.4147 30.7718 13.098 31.3345 12.5777L32.5241 14.2517L32.517 14.2442Z" fill="black"/>
<path d="M34.8961 11.6955C35.0599 12.4948 35.6511 13.3921 36.9262 13.3921C38.13 13.3921 38.8423 13.0226 39.4477 12.4345L40.6017 14.0255C39.8894 14.757 38.4719 15.511 36.7908 15.511C34.4972 15.511 32.517 13.6937 32.517 11.0621C32.517 8.4304 34.2977 6.61311 37.0045 6.61311C39.7113 6.61311 41.143 8.68678 41.143 11.4843V11.7106H34.8961V11.6955ZM38.7711 9.9159C38.5075 9.26741 37.9661 8.69432 36.8906 8.69432C35.815 8.69432 35.1454 9.3956 34.9958 9.9159H38.7711Z" fill="black"/>
<path d="M63.075 11.6955C63.2389 12.4948 63.8301 13.3921 65.1051 13.3921C66.3089 13.3921 67.0212 13.0226 67.6267 12.4345L68.7806 14.0255C68.0683 14.757 66.6508 15.511 64.9698 15.511C62.6761 15.511 60.6959 13.6937 60.6959 11.0621C60.6959 8.4304 62.4767 6.61311 65.1835 6.61311C67.8903 6.61311 69.322 8.68678 69.322 11.4843V11.7106H63.075V11.6955ZM66.95 9.9159C66.6865 9.26741 66.1451 8.69432 65.0695 8.69432C63.9939 8.69432 63.3244 9.3956 63.1748 9.9159H66.95Z" fill="black"/>
<path d="M74.5576 8.86776C73.5318 8.86776 72.5275 9.54641 72.5275 11.5522V15.232H70.0201V6.85442H72.5275V8.06091H72.5631C73.0902 7.06555 74.0946 6.59804 75.4479 6.59804C75.5833 6.59804 75.7257 6.59804 75.9109 6.61312V9.21463C75.3981 8.98841 75.0562 8.86776 74.5576 8.86776Z" fill="black"/>
<path d="M78.0407 15.2396V9.13168H76.7728V6.86196H78.0407V4.52437H80.5481V6.86196H82.5782V9.13168H80.5481V15.2396H78.0407Z" fill="black"/>
<path d="M38.2297 2.85789L43.5934 10.2175L40.1957 16.3857C40.0105 16.7251 40.4307 17.0719 40.6943 16.7929L44.6975 12.5702C44.8399 12.4194 45.075 12.4345 45.2032 12.6004L47.1692 15.1491C47.333 15.3602 47.5752 15.4809 47.8316 15.4809H50.8875C51.0228 15.4809 51.1083 15.315 51.0299 15.1943L47.1834 9.21462L53.929 0.738983H48.8004C48.6081 0.738983 48.4229 0.837011 48.3089 0.995364L44.8399 5.88167L42.8455 3.12935C42.7315 2.971 42.5534 2.87297 42.3611 2.87297L38.2155 2.85035L38.2297 2.85789Z" fill="#016DD4"/>
<path d="M56.1657 15.4658C54.912 15.4658 54.1071 14.9229 53.6085 14.3347H53.5729V19.221H51.0656V6.86196H53.5729V7.84224H53.6085C54.1855 7.05802 54.8978 6.63574 56.0517 6.63574C58.3739 6.63574 60.1404 8.66416 60.1404 11.1224C60.1404 13.5806 58.3454 15.4658 56.1657 15.4658ZM55.603 13.4374C56.7213 13.4374 57.6331 12.6004 57.6331 11.0772C57.6331 9.55396 56.7284 8.71695 55.603 8.71695C54.4775 8.71695 53.5729 9.55396 53.5729 11.0772C53.5729 12.6004 54.4775 13.4374 55.603 13.4374Z" fill="black"/>
<path d="M35.929 24.2129L36.4489 20.7593H38.707L38.6357 21.2645H36.9404L36.798 22.2146H38.2796L38.2083 22.7198H36.7267L36.5772 23.7152H38.2725L38.2012 24.2204H35.9432L35.929 24.2129Z" fill="#939393"/>
<path d="M39.5332 21.634L39.7968 23.2628L39.8182 23.7604L39.982 23.2628L40.737 21.634H41.314L40.1102 24.2129H39.4122L38.9705 21.634H39.5261H39.5332Z" fill="#939393"/>
<path d="M42.817 21.5887C42.9523 21.5887 43.0734 21.6038 43.1732 21.6415C43.2729 21.6792 43.3584 21.7245 43.4225 21.7848C43.4866 21.8451 43.5364 21.9205 43.5649 22.0035C43.5934 22.0864 43.6148 22.1769 43.6148 22.2674C43.6148 22.3881 43.5934 22.4936 43.5436 22.5992C43.4937 22.7048 43.4153 22.7952 43.3014 22.8706C43.1874 22.9461 43.0449 23.0064 42.874 23.0516C42.6959 23.0969 42.4822 23.1195 42.2329 23.1195H42.1189C42.0833 23.1195 42.0406 23.1195 41.9978 23.1195C41.9978 23.1421 41.9978 23.1647 41.9978 23.1874V23.2477C41.9978 23.6247 42.1902 23.8132 42.5748 23.8132C42.6674 23.8132 42.76 23.8057 42.8384 23.7831C42.9167 23.768 42.9951 23.7454 43.0521 23.7227C43.1233 23.7001 43.1874 23.6624 43.2444 23.6322L43.3156 24.0696C43.2515 24.1073 43.1803 24.145 43.1019 24.1752C43.0307 24.1978 42.9452 24.2204 42.8455 24.243C42.7458 24.2657 42.6318 24.2732 42.4965 24.2732C42.3113 24.2732 42.1546 24.2506 42.0192 24.1978C41.8839 24.145 41.777 24.0771 41.6916 23.9791C41.6061 23.8886 41.542 23.7755 41.4992 23.6398C41.4565 23.5041 41.4351 23.3608 41.4351 23.1949C41.4351 22.9838 41.4636 22.7877 41.5277 22.5916C41.5918 22.3956 41.6844 22.2297 41.8055 22.0789C41.9266 21.9281 42.0691 21.815 42.2472 21.7245C42.4252 21.634 42.6176 21.5887 42.8313 21.5887H42.817ZM42.0406 22.7198C42.1759 22.7198 42.3113 22.7198 42.4395 22.7048C42.5677 22.6897 42.6745 22.6746 42.7743 22.6444C42.874 22.6143 42.9452 22.5766 43.0022 22.5162C43.0592 22.4635 43.0877 22.3956 43.0877 22.3051C43.0877 22.2146 43.0592 22.1543 43.0022 22.1015C42.9452 22.0487 42.8597 22.0186 42.7458 22.0186C42.6674 22.0186 42.5891 22.0336 42.5107 22.0638C42.4324 22.094 42.3682 22.1392 42.3041 22.1995C42.24 22.2599 42.183 22.3277 42.1403 22.4182C42.0976 22.5012 42.062 22.6067 42.0406 22.7198Z" fill="#939393"/>
<path d="M44.726 21.634L44.7402 22.0638C44.7402 22.0638 44.7972 21.9959 44.8471 21.9432C44.897 21.8904 44.9611 21.8376 45.0394 21.7848C45.1178 21.732 45.2032 21.6868 45.3101 21.6491C45.4098 21.6114 45.5309 21.5887 45.652 21.5887L45.5523 22.109H45.5309C45.5309 22.109 45.5167 22.109 45.5024 22.109C45.4882 22.109 45.4739 22.109 45.4597 22.109C45.3457 22.109 45.2389 22.1392 45.1463 22.192C45.0537 22.2448 44.9753 22.2976 44.9041 22.3579C44.8257 22.4333 44.7545 22.5162 44.6975 22.6067L44.4553 24.2129H43.8997L44.2844 21.634H44.726Z" fill="#939393"/>
<path d="M45.4953 24.7558C45.4953 24.7558 45.538 24.7709 45.5594 24.7784C45.5808 24.7784 45.6093 24.7935 45.6306 24.7935C45.6591 24.7935 45.6876 24.7935 45.7232 24.7935C45.8158 24.7935 45.9013 24.7709 45.9725 24.7407C46.0438 24.703 46.1008 24.6578 46.1577 24.5974C46.2147 24.5371 46.2575 24.4768 46.2931 24.4089C46.3287 24.3411 46.3643 24.2732 46.3928 24.2053L45.9013 21.634H46.4783L46.7205 23.1798L46.7418 23.6775L47.6607 21.6264H48.2306L46.9342 24.2581C46.8558 24.4165 46.7774 24.5597 46.6991 24.6804C46.6207 24.801 46.5353 24.9066 46.4427 24.9896C46.3501 25.0725 46.2503 25.1404 46.1435 25.1856C46.0295 25.2309 45.9084 25.2535 45.7731 25.2535C45.709 25.2535 45.6591 25.2535 45.6164 25.2535C45.5736 25.2535 45.538 25.2459 45.5024 25.2384C45.4668 25.2309 45.4383 25.2158 45.4169 25.2082L45.5095 24.7558H45.4953Z" fill="#939393"/>
<path d="M50.6239 20.7593L51.1937 22.8631L52.3975 20.7593H53.0315L52.7822 24.2129H52.2195L52.3762 22.0186L52.4331 21.6038L51.3077 23.5493H50.9017L50.3532 21.6264L50.2891 22.0186L49.7905 24.2129H49.2135L49.997 20.7593H50.631H50.6239Z" fill="#939393"/>
<path d="M54.4704 24.2657C54.1499 24.2657 53.9005 24.1752 53.7153 23.9867C53.5301 23.7981 53.4304 23.5267 53.4304 23.1572C53.4304 22.9234 53.466 22.7123 53.5301 22.5162C53.5943 22.3277 53.6868 22.1618 53.8008 22.0186C53.9148 21.8828 54.0573 21.7773 54.2211 21.7019C54.3849 21.6264 54.563 21.5887 54.7624 21.5887C55.1257 21.5887 55.3964 21.6868 55.5745 21.8828C55.7454 22.0789 55.838 22.3503 55.838 22.6897C55.838 22.9234 55.8095 23.1346 55.7454 23.3231C55.6813 23.5116 55.5958 23.6775 55.4747 23.8208C55.3537 23.964 55.2183 24.0696 55.0474 24.145C54.8764 24.2204 54.6912 24.2581 54.4775 24.2581L54.4704 24.2657ZM53.986 23.1497C53.986 23.3532 54.0288 23.5116 54.1142 23.6322C54.1997 23.7529 54.3351 23.8057 54.5203 23.8057C54.6271 23.8057 54.7268 23.7831 54.8194 23.7303C54.912 23.6775 54.9904 23.6096 55.0616 23.5116C55.1328 23.4136 55.1827 23.3005 55.2183 23.1647C55.2539 23.029 55.2753 22.8782 55.2753 22.7048C55.2753 22.4936 55.2326 22.3353 55.1542 22.2222C55.0759 22.1166 54.9334 22.0563 54.7339 22.0563C54.6271 22.0563 54.5274 22.0789 54.4348 22.1317C54.3422 22.1845 54.2638 22.2523 54.1997 22.3503C54.1285 22.4484 54.0786 22.5615 54.043 22.6972C54.0074 22.8329 53.986 22.9838 53.986 23.1572V23.1497Z" fill="#939393"/>
<path d="M56.8708 21.634L57.1344 23.2628L57.1558 23.7604L57.3196 23.2628L58.0746 21.634H58.6516L57.4478 24.2129H56.7497L56.3081 21.634H56.8637H56.8708Z" fill="#939393"/>
<path d="M60.1546 21.5887C60.2899 21.5887 60.411 21.6038 60.5107 21.6415C60.6105 21.6792 60.6959 21.7245 60.7601 21.7848C60.8242 21.8451 60.874 21.9205 60.9025 22.0035C60.931 22.0864 60.9524 22.1769 60.9524 22.2674C60.9524 22.3881 60.931 22.4936 60.8811 22.5992C60.8313 22.7048 60.7529 22.7952 60.639 22.8706C60.525 22.9461 60.3825 23.0064 60.2116 23.0516C60.0335 23.0969 59.8198 23.1195 59.5705 23.1195H59.4565C59.4209 23.1195 59.3782 23.1195 59.3354 23.1195C59.3354 23.1421 59.3354 23.1647 59.3354 23.1874V23.2477C59.3354 23.6247 59.5278 23.8132 59.9124 23.8132C60.005 23.8132 60.0976 23.8057 60.176 23.7831C60.2543 23.768 60.3327 23.7454 60.3896 23.7227C60.4609 23.7001 60.525 23.6624 60.582 23.6322L60.6532 24.0696C60.5891 24.1073 60.5179 24.145 60.4395 24.1752C60.3683 24.1978 60.2828 24.2204 60.1831 24.243C60.0834 24.2657 59.9694 24.2732 59.834 24.2732C59.6488 24.2732 59.4921 24.2506 59.3568 24.1978C59.2215 24.145 59.1146 24.0771 59.0291 23.9791C58.9437 23.8886 58.8795 23.7755 58.8368 23.6398C58.7941 23.5041 58.7727 23.3608 58.7727 23.1949C58.7727 22.9838 58.8012 22.7877 58.8653 22.5916C58.9294 22.3956 59.022 22.2297 59.1431 22.0789C59.2642 21.9281 59.4067 21.815 59.5847 21.7245C59.7628 21.634 59.9551 21.5887 60.1688 21.5887H60.1546ZM59.3782 22.7198C59.5135 22.7198 59.6488 22.7198 59.7771 22.7048C59.9053 22.6897 60.0121 22.6746 60.1118 22.6444C60.2116 22.6143 60.2828 22.5766 60.3398 22.5162C60.3968 22.4635 60.4253 22.3956 60.4253 22.3051C60.4253 22.2146 60.3968 22.1543 60.3398 22.1015C60.2828 22.0487 60.1973 22.0186 60.0834 22.0186C60.005 22.0186 59.9266 22.0336 59.8483 22.0638C59.7699 22.094 59.7058 22.1392 59.6417 22.1995C59.5776 22.2599 59.5206 22.3277 59.4779 22.4182C59.4352 22.5012 59.3995 22.6067 59.3782 22.7198Z" fill="#939393"/>
<path d="M63.5808 20.7593L64.1506 22.8631L65.3544 20.7593H65.9884L65.7391 24.2129H65.1764L65.3331 22.0186L65.3901 21.6038L64.2646 23.5493H63.8586L63.3101 21.6264L63.246 22.0186L62.7474 24.2129H62.1704L62.954 20.7593H63.5879H63.5808Z" fill="#939393"/>
<path d="M68.4246 24.2129H67.9758V23.8132C67.9473 23.8509 67.9117 23.8962 67.8618 23.949C67.812 24.0017 67.755 24.047 67.6909 24.0922C67.6268 24.1375 67.5484 24.1752 67.463 24.2129C67.3775 24.243 67.2778 24.2581 67.1709 24.2581C67.0641 24.2581 66.9643 24.2355 66.8717 24.1978C66.7791 24.1525 66.6937 24.0922 66.6224 24.0093C66.5512 23.9263 66.4942 23.8208 66.4586 23.6926C66.4159 23.5644 66.4016 23.4136 66.4016 23.2401C66.4016 23.029 66.4301 22.8254 66.4871 22.6293C66.5441 22.4333 66.6367 22.2523 66.7578 22.1015C66.8789 21.9432 67.0284 21.8225 67.2136 21.732C67.3988 21.6415 67.6054 21.5963 67.8476 21.5963C67.9687 21.5963 68.0827 21.6038 68.2038 21.6264C68.3177 21.6491 68.4246 21.6717 68.51 21.6943C68.6169 21.7245 68.7166 21.7546 68.8021 21.7923L68.4317 24.2204L68.4246 24.2129ZM68.1895 22.1241C68.1468 22.1166 68.0969 22.1015 68.0542 22.0864C68.0114 22.0789 67.9616 22.0638 67.9188 22.0563C67.869 22.0487 67.8191 22.0412 67.7692 22.0412C67.6339 22.0412 67.5128 22.0713 67.4131 22.1392C67.3134 22.2071 67.2279 22.29 67.1567 22.3956C67.0854 22.5012 67.0356 22.6218 67.0071 22.75C66.9715 22.8857 66.9572 23.0215 66.9572 23.1572C66.9572 23.2778 66.9715 23.3759 66.9928 23.4588C67.0142 23.5418 67.0427 23.6021 67.0783 23.6473C67.1139 23.6926 67.1567 23.7227 67.2065 23.7454C67.2564 23.768 67.3062 23.7755 67.349 23.7755C67.4273 23.7755 67.5057 23.7529 67.5769 23.7152C67.6482 23.67 67.7123 23.6247 67.7764 23.5644C67.8405 23.5041 67.8903 23.4437 67.9331 23.3834C67.9758 23.3231 68.0114 23.2703 68.0328 23.2251L68.1966 22.1166L68.1895 22.1241Z" fill="#939393"/>
<path d="M70.4974 24.1299C70.4547 24.1526 70.4048 24.1752 70.3478 24.1978C70.298 24.2129 70.241 24.228 70.1698 24.243C70.0985 24.2581 70.0202 24.2657 69.9347 24.2657C69.7281 24.2657 69.5714 24.2129 69.4574 24.1149C69.3435 24.0168 69.2865 23.8585 69.2865 23.6398C69.2865 23.6096 69.2865 23.5719 69.2865 23.5342C69.2865 23.4965 69.2936 23.4588 69.3007 23.4211L69.5002 22.1015H69.1868L69.2509 21.634H69.5857L69.7495 20.9478H70.2339L70.1341 21.634H70.8251L70.7396 22.1015H70.07L69.8706 23.4211C69.8706 23.4211 69.8706 23.4588 69.8706 23.4739C69.8706 23.489 69.8706 23.5116 69.8706 23.5267C69.8706 23.6021 69.892 23.67 69.9347 23.7152C69.9774 23.7604 70.0487 23.7831 70.1484 23.7831C70.1983 23.7831 70.241 23.7831 70.2837 23.768C70.3265 23.7604 70.3621 23.7529 70.3906 23.7378C70.4262 23.7227 70.4547 23.7077 70.4832 23.6926L70.5045 24.1149L70.4974 24.1299Z" fill="#939393"/>
<path d="M72.4206 24.1299C72.3779 24.1526 72.328 24.1752 72.271 24.1978C72.2212 24.2129 72.1642 24.228 72.093 24.243C72.0217 24.2581 71.9434 24.2657 71.8579 24.2657C71.6513 24.2657 71.4946 24.2129 71.3807 24.1149C71.2667 24.0168 71.2097 23.8585 71.2097 23.6398C71.2097 23.6096 71.2097 23.5719 71.2097 23.5342C71.2097 23.4965 71.2168 23.4588 71.224 23.4211L71.4234 22.1015H71.11L71.1741 21.634H71.5089L71.6727 20.9478H72.1571L72.0574 21.634H72.7483L72.6628 22.1015H71.9932L71.7938 23.4211C71.7938 23.4211 71.7938 23.4588 71.7938 23.4739C71.7938 23.489 71.7938 23.5116 71.7938 23.5267C71.7938 23.6021 71.8152 23.67 71.8579 23.7152C71.9006 23.7604 71.9719 23.7831 72.0716 23.7831C72.1215 23.7831 72.1642 23.7831 72.2069 23.768C72.2497 23.7604 72.2853 23.7529 72.3138 23.7378C72.3494 23.7227 72.3779 23.7077 72.4064 23.6926L72.4278 24.1149L72.4206 24.1299Z" fill="#939393"/>
<path d="M74.3724 21.5887C74.5077 21.5887 74.6288 21.6038 74.7286 21.6415C74.8283 21.6792 74.9138 21.7245 74.9779 21.7848C75.042 21.8451 75.0918 21.9205 75.1203 22.0035C75.1488 22.0864 75.1702 22.1769 75.1702 22.2674C75.1702 22.3881 75.1417 22.4936 75.099 22.5992C75.0491 22.7048 74.9707 22.7952 74.8568 22.8706C74.7428 22.9461 74.6003 23.0064 74.4294 23.0516C74.2513 23.0969 74.0376 23.1195 73.7883 23.1195H73.6743C73.6387 23.1195 73.596 23.1195 73.5532 23.1195C73.5532 23.1421 73.5532 23.1647 73.5532 23.1874V23.2477C73.5532 23.6247 73.7456 23.8132 74.1302 23.8132C74.2228 23.8132 74.3154 23.8057 74.3938 23.7831C74.4721 23.768 74.5434 23.7454 74.6075 23.7227C74.6787 23.7001 74.7428 23.6624 74.7998 23.6322L74.871 24.0696C74.8069 24.1073 74.7357 24.145 74.6502 24.1752C74.579 24.1978 74.4935 24.2204 74.3938 24.243C74.2941 24.2657 74.1801 24.2732 74.0447 24.2732C73.8595 24.2732 73.7028 24.2506 73.5675 24.1978C73.4322 24.145 73.3253 24.0771 73.2398 23.9791C73.1544 23.8811 73.0902 23.7755 73.0475 23.6398C73.0048 23.5041 72.9834 23.3608 72.9834 23.1949C72.9834 22.9838 73.0119 22.7877 73.076 22.5916C73.1401 22.3956 73.2327 22.2297 73.3538 22.0789C73.4749 21.9281 73.6174 21.815 73.7954 21.7245C73.9664 21.634 74.1658 21.5887 74.3795 21.5887H74.3724ZM73.6031 22.7198C73.7384 22.7198 73.8738 22.7198 74.002 22.7048C74.1302 22.6897 74.2371 22.6746 74.3368 22.6444C74.4365 22.6143 74.5077 22.5766 74.5647 22.5162C74.6217 22.4635 74.6502 22.3956 74.6502 22.3051C74.6502 22.2146 74.6217 22.1543 74.5647 22.1015C74.5077 22.0487 74.4223 22.0186 74.3083 22.0186C74.2299 22.0186 74.1516 22.0336 74.0732 22.0638C73.9949 22.094 73.9308 22.1392 73.8667 22.1995C73.8026 22.2599 73.7456 22.3277 73.7028 22.4182C73.653 22.5012 73.6245 22.6067 73.6031 22.7198Z" fill="#939393"/>
<path d="M76.2884 21.634L76.3027 22.0638C76.3027 22.0638 76.3597 21.9959 76.4095 21.9432C76.4594 21.8904 76.5235 21.8376 76.6019 21.7848C76.6802 21.732 76.7657 21.6868 76.8725 21.6491C76.9794 21.6114 77.0933 21.5887 77.2144 21.5887L77.1147 22.109H77.0933C77.0933 22.109 77.0791 22.109 77.0649 22.109C77.0506 22.109 77.0364 22.109 77.0221 22.109C76.9081 22.109 76.8013 22.1392 76.7087 22.192C76.6161 22.2448 76.5377 22.2976 76.4665 22.3579C76.3882 22.4333 76.3169 22.5162 76.2599 22.6067L76.0178 24.2129H75.4622L75.8468 21.634H76.2884Z" fill="#939393"/>
<path d="M77.3854 23.5795C77.4424 23.6247 77.5065 23.6624 77.5777 23.7001C77.6418 23.7303 77.7131 23.7529 77.7985 23.7755C77.884 23.7981 77.9837 23.8132 78.0906 23.8132C78.2473 23.8132 78.3755 23.7906 78.4539 23.7378C78.5393 23.685 78.5821 23.6096 78.5821 23.5191C78.5821 23.4664 78.5678 23.4211 78.5393 23.3834C78.5108 23.3457 78.4752 23.3155 78.4325 23.2929C78.3826 23.2703 78.3328 23.2401 78.2687 23.2251C78.2046 23.2024 78.1404 23.1798 78.0621 23.1496C77.9695 23.1195 77.8911 23.0818 77.8199 23.0365C77.7487 22.9913 77.6846 22.9461 77.6276 22.8857C77.5706 22.8254 77.535 22.7575 77.4994 22.6746C77.4709 22.5916 77.4566 22.5012 77.4566 22.388C77.4566 22.1392 77.5421 21.9432 77.7202 21.8074C77.8911 21.6717 78.1476 21.5963 78.4824 21.5963C78.6177 21.5963 78.7388 21.6038 78.8385 21.6264C78.9382 21.6491 79.0237 21.6717 79.0878 21.6943C79.1662 21.7245 79.2303 21.7546 79.2801 21.7923L79.1092 22.2372C79.0664 22.2071 79.0095 22.1769 78.9454 22.1467C78.8955 22.1241 78.8243 22.1015 78.7459 22.0864C78.6676 22.0638 78.575 22.0563 78.4681 22.0563C78.3185 22.0563 78.2046 22.0789 78.1191 22.1241C78.0336 22.1694 77.9909 22.2372 77.9909 22.3353C77.9909 22.388 78.0051 22.4258 78.0265 22.4559C78.0478 22.4861 78.0763 22.5162 78.1191 22.5464C78.1618 22.5766 78.2046 22.5992 78.2615 22.6218C78.3185 22.6444 78.3755 22.667 78.4325 22.6972C78.5322 22.7425 78.6248 22.7877 78.7103 22.8329C78.7958 22.8782 78.867 22.9234 78.924 22.9838C78.981 23.0441 79.0308 23.1119 79.0593 23.1874C79.0949 23.2628 79.1092 23.3608 79.1092 23.4739C79.1092 23.7454 79.0166 23.949 78.8314 24.0847C78.6462 24.2204 78.3898 24.2883 78.055 24.2883C77.9125 24.2883 77.7914 24.2732 77.6846 24.2506C77.5777 24.228 77.4922 24.1978 77.421 24.1676C77.3355 24.1299 77.2643 24.0922 77.2002 24.047L77.364 23.5945L77.3854 23.5795Z" fill="#939393"/>
<path d="M80.1635 23.8735C80.1635 23.9791 80.135 24.0696 80.0709 24.145C80.0068 24.2204 79.9142 24.2657 79.7788 24.2657C79.6791 24.2657 79.6007 24.243 79.558 24.1903C79.5153 24.1375 79.4939 24.0771 79.4939 23.9942C79.4939 23.8886 79.5224 23.7981 79.5794 23.7152C79.6364 23.6322 79.7361 23.6021 79.8714 23.6021C79.9711 23.6021 80.0495 23.6247 80.0922 23.6775C80.135 23.7303 80.1563 23.7906 80.1563 23.8735H80.1635Z" fill="#939393"/>
<path d="M81.2818 23.8735C81.2818 23.9791 81.2533 24.0696 81.1892 24.145C81.125 24.2204 81.0324 24.2657 80.8971 24.2657C80.7974 24.2657 80.719 24.243 80.6763 24.1903C80.6336 24.1375 80.6122 24.0771 80.6122 23.9942C80.6122 23.8886 80.6407 23.7981 80.6977 23.7152C80.7546 23.6322 80.8544 23.6021 80.9897 23.6021C81.0894 23.6021 81.1678 23.6247 81.2105 23.6775C81.2533 23.7303 81.2746 23.7906 81.2746 23.8735H81.2818Z" fill="#939393"/>
<path d="M82.393 23.8735C82.393 23.9791 82.3645 24.0696 82.3004 24.145C82.2363 24.2204 82.1436 24.2657 82.0083 24.2657C81.9086 24.2657 81.8302 24.243 81.7875 24.1903C81.7448 24.1375 81.7234 24.0771 81.7234 23.9942C81.7234 23.8886 81.7519 23.7981 81.8089 23.7152C81.8658 23.6322 81.9656 23.6021 82.1009 23.6021C82.2006 23.6021 82.279 23.6247 82.3217 23.6775C82.3645 23.7303 82.3858 23.7906 82.3858 23.8735H82.393Z" fill="#939393"/>
</svg>
